<svg width="53" height="52" viewBox="0 0 53 52" fill="none" xmlns="http://www.w3.org/2000/svg">
<path d="M41.4811 17.2781L41.6476 17.3114L42.1802 17.5111L43.0458 17.9106L43.7116 18.2435L44.4773 18.6763L45.1099 19.0758L45.6425 19.442L46.1752 19.8415L46.7079 20.2743L47.1406 20.6405L47.5734 21.04L48.3391 21.8057L48.5722 22.072L48.9384 22.4715L49.2047 22.8044L49.6708 23.4037L50.3366 24.4024L50.7361 25.0683L51.1356 25.8007L51.5351 26.633L51.9013 27.5318L52.3008 28.7303L52.5338 29.5959L52.7669 30.7278L52.9001 31.6932L52.9999 32.8584V34.7561L52.8668 36.0211L52.7003 36.9866L52.5006 37.8854L52.2342 38.8176L51.9013 39.8163L51.5351 40.6819L51.069 41.6474L50.6362 42.4464L50.2367 43.0789L49.804 43.7114L49.3379 44.344L48.9717 44.7768L48.672 45.143L48.4057 45.4093L48.1727 45.6756L47.3737 46.4746L47.0075 46.7742L46.5081 47.207L46.0753 47.5399L45.4761 47.9727L44.7104 48.4721L44.0113 48.8716L43.1124 49.3377L42.3134 49.7039L41.2814 50.1034L40.3492 50.403L39.3838 50.636L38.152 50.8691L37.0866 51.0022L36.0879 51.0688H16.3794L15.9799 51.0022L15.5471 50.8358L15.1809 50.6028L14.848 50.3031L14.5817 49.8703L14.4152 49.4376L14.3153 48.9382V48.6386L14.4152 48.1725L14.5817 47.773L14.8147 47.4401L15.081 47.1404L15.5138 46.8408L15.9133 46.6744L16.3461 46.6078L28.3976 46.5745L28.8637 46.5412L29.363 46.408L29.8291 46.1417L30.0622 45.942H30.1287L30.1953 45.8088L30.4284 45.4759L30.5948 45.143L30.728 44.6436V44.1109L30.5948 43.5783L30.3285 43.0456L29.9623 42.6461L29.6294 42.4131L29.2965 42.2466L28.9303 42.1467L23.2707 42.1134H14.0823L12.5176 42.0802L12.0182 41.947L11.5189 41.6807L11.1527 41.3477L10.853 40.8817L10.6866 40.4489L10.62 40.1493V39.4834L10.7532 39.0506L10.9529 38.6511L11.2192 38.3182L11.4523 38.0852L11.8851 37.8189L12.2513 37.6857L12.6841 37.6191L23.6036 37.5858L24.0031 37.5192L24.4359 37.3528L24.8021 37.1197L25.1017 36.8534L25.4014 36.3873L25.5678 35.9545L25.6344 35.6882V35.089L25.5012 34.6229L25.3348 34.2567L25.135 33.9571L24.902 33.6907L24.5691 33.4577L24.1696 33.2579L23.7701 33.1581L23.304 33.1248H19.9083L17.6112 33.0915L17.1451 32.9583L16.7789 32.7586L16.4793 32.5255L16.2462 32.2592L15.9799 31.7931L15.8135 31.2605L15.7802 31.0607V30.5946L15.88 30.1951L16.0465 29.7956L16.3461 29.3961L16.6457 29.0965L17.0785 28.8302L17.5779 28.6637L17.8442 28.6304L29.9623 28.5971L31.0276 28.464L32.2261 28.1976L33.2248 27.898L34.1903 27.4985L35.0559 27.0657L35.7883 26.633L36.3209 26.2668L36.7537 25.9338L37.0866 25.6675L37.5194 25.3013L38.3184 24.5023L38.618 24.1361L39.0508 23.6034L39.3505 23.1707L39.7167 22.6047L40.0496 22.0055L40.3159 21.4728L40.6821 20.6405L41.0483 19.5419L41.2814 18.5764L41.4811 17.2781Z" fill="#64F4AC"/>
<path d="M13.0836 0H26.5999L27.6985 0.0665828L28.7305 0.199748L29.7625 0.399497L30.728 0.665828L31.7933 1.03203L32.4924 1.33166L33.3247 1.73115L34.0904 2.16394L34.6897 2.53015L35.2889 2.96293L35.8216 3.36243L36.2544 3.72864L36.7204 4.12813L37.2864 4.66079L37.6859 5.09358L37.9855 5.45979L38.385 5.92587L38.7845 6.45853L39.4503 7.45727L39.8831 8.18968L40.3492 9.12184L40.782 10.1872L41.1482 11.2858L41.4145 12.3844L41.6143 13.5829L41.7142 14.6482L41.7474 15.1809V16.2129L41.7142 16.8454L41.6476 16.912L40.4491 16.5125L39.184 16.1796L38.0521 15.9466L36.8203 15.7801L35.5885 15.6802L34.6231 15.647L13.1169 15.6137L12.4843 15.5471L11.4523 15.3473L10.6533 15.081L10.054 14.8147L9.35492 14.4152L8.95543 14.1488L8.52264 13.8159L8.08985 13.4164L7.59048 12.9171L7.22427 12.451L6.7582 11.7519L6.42528 11.1193L6.15895 10.4535L5.9592 9.85425L5.79275 9.05526L5.72616 8.58918L5.69287 8.1231V7.05777L5.79275 6.35865L5.99249 5.55966L6.22553 4.89383L6.52516 4.22801L6.92465 3.56218L7.25757 3.0961L7.62377 2.66331L7.92339 2.3304L8.15643 2.09736L8.52264 1.79773L9.02201 1.39824L9.48809 1.09862L10.2538 0.699119L11.0861 0.366205L11.6853 0.199748L12.3844 0.0665828L13.0836 0Z" fill="white"/>
<path d="M1.99748 46.6079H9.88754L10.287 46.7078L10.7531 46.9408L11.086 47.2072L11.3857 47.5734L11.652 48.106L11.7852 48.672V49.0715L11.652 49.6041L11.4189 50.0702L11.1526 50.4031L10.8863 50.6362L10.4868 50.8692L10.1206 51.0024L9.75438 51.069H2.13065L1.66457 51.0024L1.23178 50.8359L0.865576 50.6029L0.532662 50.3033L0.266331 49.8705L0.0665828 49.3378L0 48.8384L0.0665828 48.2725L0.23304 47.8397L0.466079 47.4735L0.765702 47.1406L1.03203 46.9408L1.49811 46.7078L1.73115 46.6412L1.99748 46.6079Z" fill="#64F4AC"/>
<path d="M7.52391 28.6306H11.1527L11.652 28.7305L11.985 28.8637L12.3844 29.13L12.7174 29.4629L12.9504 29.8291L13.1169 30.2286L13.2167 30.6614V31.1608L13.0836 31.6934L12.8505 32.1262L12.5842 32.4591L12.3179 32.6922L11.985 32.8919L11.5522 33.0584L11.3857 33.0917L10.9196 33.125H8.28961L7.32416 33.0917L6.92466 32.9918L6.45858 32.7587L6.09238 32.4591L5.82604 32.0929L5.6263 31.6934L5.49313 31.1941L5.45984 30.728L5.55971 30.1953L5.82604 29.6626L6.09238 29.3297L6.42529 29.0301L6.92466 28.7638L7.29087 28.6639L7.52391 28.6306Z" fill="#64F4AC"/>
</svg>
