<svg width="46" height="40" viewBox="0 0 46 40" fill="none" xmlns="http://www.w3.org/2000/svg">
<path d="M22.9377 31.2039H10.1607L7.561 39.4867C7.48886 39.7944 7.20557 40.0123 6.89725 39.997H0.425638C0.0565694 39.997 -0.0724713 39.7891 0.0384584 39.373L11.1009 6.69602C11.2116 6.3556 11.3224 5.96807 11.4328 5.53313C11.5777 4.77603 11.6516 4.00685 11.6542 3.23561C11.6224 3.00769 11.8227 2.80639 12.0412 2.83831H20.8361C21.0937 2.83831 21.241 2.93289 21.2784 3.12195L33.8346 39.4299C33.945 39.8083 33.8346 39.9973 33.5027 39.997H26.3119C26.0598 40.0259 25.8189 39.853 25.7588 39.6001L22.9377 31.2039ZM12.1519 24.0558H20.8914C19.4555 19.1492 17.835 14.3071 16.5217 9.36252C15.1046 14.3156 13.5586 19.2487 12.1519 24.0558Z" fill="#FF9A00"/>
<path d="M41.3011 8.85141C40.7369 8.87468 40.1745 8.77543 39.65 8.56047C39.1258 8.3455 38.6517 8.01922 38.2589 7.60342C37.8672 7.16935 37.5627 6.6605 37.3634 6.10541C37.164 5.55061 37.0736 4.96077 37.0972 4.36976C37.0771 3.78463 37.1776 3.20186 37.3919 2.65929C37.6066 2.11674 37.9302 1.6267 38.3419 1.22114C38.7495 0.819801 39.2307 0.505359 39.7578 0.296015C40.2846 0.0866418 40.8467 -0.0134509 41.4116 0.00144964C42.7394 0.00144964 43.7809 0.408033 44.5368 1.22114C44.9185 1.64372 45.215 2.13933 45.4097 2.67961C45.604 3.21982 45.693 3.79435 45.6706 4.36976C45.6938 4.96284 45.6005 5.55503 45.3961 6.11041C45.1921 6.6658 44.8808 7.17348 44.4815 7.60342C44.0642 8.0254 43.566 8.35404 43.0188 8.56901C42.4714 8.78368 41.8865 8.87998 41.3011 8.85141ZM37.4844 39.4294V12.3121C37.4844 11.9717 37.6313 11.8015 37.927 11.8015H44.7306C45.0251 11.8015 45.1726 11.9717 45.1729 12.3121V39.4294C45.1729 39.8081 45.0254 39.9971 44.7306 39.9968H37.9824C37.6505 39.9968 37.4844 39.8078 37.4844 39.4294Z" fill="#FF9A00"/>
</svg>
