<svg width="58" height="54" viewBox="0 0 58 54" fill="none" xmlns="http://www.w3.org/2000/svg">
<path d="M48.0914 19.2222V23.0496H51.9094V19.2222H53.8184V23.0496H57.6364V24.9634H53.8184V28.7905H57.6364V30.7043H53.8184V34.5317H51.9094V30.7043H48.0914V34.5317H46.1824V30.7043H42.3647V28.7905H46.1824V24.9634H42.3647V23.0496H46.1824V19.2222H48.0914ZM51.9094 24.9631H48.0914V28.7905H51.9094V24.9631Z" fill="#A179DC"/>
<path d="M27.283 0.000283906C37.2414 0.000283906 45.9356 5.4219 50.5926 13.4807L50.5473 13.4032L38.8304 20.1662C36.5222 16.2481 32.2905 13.6037 27.4357 13.5492L27.2827 13.5484C19.88 13.5484 13.8784 19.5648 13.8784 26.9859C13.876 29.325 14.4856 31.6238 15.6463 33.6529C17.9568 37.6965 22.3004 40.4238 27.283 40.4238C32.2965 40.4238 36.6647 37.6618 38.9633 33.575L38.9075 33.673L50.6065 40.4672C46.0005 48.4579 37.4253 53.8628 27.5828 53.9704L27.283 53.9721C17.2932 53.9721 8.57425 48.517 3.92886 40.4155C1.66115 36.4605 0.363647 31.8755 0.363647 26.9859C0.363647 12.0823 12.4155 0 27.2827 0L27.283 0.000283906Z" fill="#A179DC"/>
</svg>
