<svg width="34" height="50" viewBox="0 0 34 50" fill="none" xmlns="http://www.w3.org/2000/svg">
<path fill-rule="evenodd" clip-rule="evenodd" d="M16.6667 24.9998C16.6667 20.3975 20.3977 16.6665 25 16.6665C29.6023 16.6665 33.3333 20.3975 33.3333 24.9998C33.3333 29.6021 29.6023 33.3332 25 33.3332C20.3977 33.3332 16.6667 29.6021 16.6667 24.9998Z" fill="#1ABCFE"/>
<path fill-rule="evenodd" clip-rule="evenodd" d="M0 41.6668C0 37.0645 3.73096 33.3335 8.33333 33.3335H16.6667V41.6668C16.6667 46.2691 12.9356 50.0002 8.33333 50.0002C3.73096 50.0002 0 46.2691 0 41.6668Z" fill="#0ACF83"/>
<path fill-rule="evenodd" clip-rule="evenodd" d="M16.6667 0V16.6667H25C29.6023 16.6667 33.3333 12.9356 33.3333 8.33333C33.3333 3.73096 29.6023 0 25 0H16.6667Z" fill="#FF7262"/>
<path fill-rule="evenodd" clip-rule="evenodd" d="M0 8.33333C0 12.9356 3.73096 16.6667 8.33333 16.6667H16.6667V0H8.33333C3.73096 0 0 3.73096 0 8.33333Z" fill="#F24E1E"/>
<path fill-rule="evenodd" clip-rule="evenodd" d="M0 24.9998C0 29.6021 3.73096 33.3332 8.33333 33.3332H16.6667V16.6665H8.33333C3.73096 16.6665 0 20.3975 0 24.9998Z" fill="#A259FF"/>
</svg>
