<svg width="54" height="60" viewBox="0 0 54 60" fill="none" xmlns="http://www.w3.org/2000/svg">
<path d="M26.862 59.4513C26.0339 59.4513 25.2977 59.2672 24.5616 58.8071L17.3842 54.5743C16.28 53.9302 16.8321 53.7462 17.2002 53.6542C18.6725 53.1021 18.9485 53.01 20.4208 52.1819C20.6048 52.0899 20.7889 52.0899 20.9729 52.2739L26.4939 55.5865C26.678 55.6785 26.954 55.6785 27.1381 55.5865L48.6702 43.1642C48.8542 43.0722 49.0382 42.7961 49.0382 42.6121V17.7674C49.0382 17.4913 48.9462 17.3073 48.6702 17.2152L27.2301 4.70087C27.0461 4.60885 26.77 4.60885 26.586 4.70087L5.05387 17.0312C4.86984 17.1232 4.6858 17.3993 4.6858 17.5833V42.428C4.6858 42.6121 4.77782 42.8881 5.05387 42.9801L10.943 46.3848C14.1636 47.9491 16.096 46.1087 16.096 44.1764V19.7917C16.096 19.4237 16.372 19.1476 16.7401 19.1476H19.5006C19.8687 19.1476 20.1447 19.4237 20.1447 19.7917V44.2684C20.1447 48.5932 17.8443 50.9857 13.7955 50.9857C12.5073 50.9857 11.5871 50.9857 8.82659 49.6054L3.21352 46.3848C1.83326 45.5566 0.913086 44.0844 0.913086 42.428V17.5833C0.913086 16.019 1.74124 14.4547 3.21352 13.6266L24.7456 1.2042C26.1259 0.468065 27.9662 0.468065 29.2545 1.2042L50.7866 13.6266C52.1668 14.4547 53.087 15.927 53.087 17.5833V42.428C53.087 43.9923 52.2588 45.5566 50.7866 46.3848L29.1625 58.8992C28.4263 59.2672 27.6902 59.4513 26.862 59.4513Z" fill="#64F4AC"/>
<path d="M33.5792 42.3359C24.1934 42.3359 22.169 38.0111 22.169 34.4224C22.169 34.0544 22.4451 33.7783 22.8131 33.7783H25.5737C25.8497 33.7783 26.1258 33.9624 26.2178 34.3304C26.5858 37.183 27.8741 38.5632 33.5792 38.5632C38.088 38.5632 40.0204 37.551 40.0204 35.1586C40.0204 33.7783 39.4683 32.7661 32.3829 32.03C26.4938 31.4779 22.8131 30.1896 22.8131 25.4047C22.8131 21.0799 26.4938 18.5034 32.659 18.5034C39.5603 18.5034 42.965 20.8959 43.425 26.0488C43.425 26.2329 43.333 26.4169 43.241 26.5089C43.149 26.601 42.965 26.693 42.7809 26.693H40.0204C39.7443 26.693 39.4683 26.5089 39.3763 26.2329C38.7322 23.2883 37.0758 22.2761 32.659 22.2761C27.6901 22.2761 27.138 24.0245 27.138 25.3127C27.138 26.877 27.7821 27.3371 34.4994 28.2573C41.1246 29.0854 44.2532 30.3737 44.2532 34.9745C44.2532 39.6674 40.3885 42.3359 33.5792 42.3359Z" fill="#64F4AC"/>
</svg>
