<svg width="60" height="54" viewBox="0 0 60 54" fill="none" xmlns="http://www.w3.org/2000/svg">
<path d="M30 32.4644C32.9517 32.4644 35.3445 30.0716 35.3445 27.1199C35.3445 24.1682 32.9517 21.7754 30 21.7754C27.0483 21.7754 24.6555 24.1682 24.6555 27.1199C24.6555 30.0716 27.0483 32.4644 30 32.4644Z" fill="#61DAFB"/>
<path d="M50.2997 18.3059C49.2683 17.9308 48.19 17.5558 47.0649 17.2276C47.3461 16.1025 47.5806 14.9773 47.7681 13.899C48.7526 7.71066 47.6743 3.35068 44.6739 1.66295C43.7832 1.14725 42.7986 0.912842 41.6735 0.912842C38.3918 0.912842 34.2193 3.35068 30 7.42937C25.7807 3.35068 21.6082 0.912842 18.3265 0.912842C17.2013 0.912842 16.2168 1.14725 15.3261 1.66295C12.3257 3.39756 11.2474 7.75754 12.2319 13.899C12.4194 14.9773 12.6538 16.1025 12.9351 17.2276C11.81 17.5558 10.7317 17.8839 9.70029 18.3059C3.8401 20.5562 0.652161 23.6504 0.652161 27.1196C0.652161 30.5888 3.88699 33.683 9.70029 35.9333C10.7317 36.3084 11.81 36.6834 12.9351 37.0116C12.6538 38.1368 12.4194 39.2619 12.2319 40.3402C11.2474 46.5286 12.3257 50.8885 15.3261 52.5763C16.2168 53.092 17.2013 53.3264 18.3265 53.3264C21.6551 53.3264 25.8275 50.8885 30 46.8098C34.2193 50.8885 38.3918 53.3264 41.6735 53.3264C42.7986 53.3264 43.7832 53.092 44.6739 52.5763C47.6743 50.8417 48.7526 46.4817 47.7681 40.3402C47.5806 39.2619 47.3461 38.1368 47.0649 37.0116C48.19 36.6834 49.2683 36.3553 50.2997 35.9333C56.1599 33.683 59.3478 30.5888 59.3478 27.1196C59.3478 23.6504 56.1599 20.5562 50.2997 18.3059ZM43.3612 4.00702C45.2834 5.13218 45.9397 8.60141 45.1427 13.524C45.0021 14.5085 44.7677 15.5399 44.4864 16.6181C42.0485 16.0556 39.4701 15.6805 36.7509 15.4461C35.157 13.1958 33.5161 11.1799 31.8752 9.35151C35.3445 5.92916 38.8606 3.58509 41.7204 3.58509C42.3298 3.58509 42.8924 3.72573 43.3612 4.00702ZM38.1105 31.8078C37.2666 33.308 36.2821 34.8082 35.2507 36.3084C33.5161 36.449 31.7815 36.4959 30 36.4959C28.1716 36.4959 26.437 36.449 24.7493 36.3084C23.7179 34.8082 22.7802 33.308 21.9364 31.8078C21.0456 30.2607 20.2018 28.6667 19.4516 27.1196C20.2018 25.5725 21.0456 23.9785 21.9364 22.4315C22.7802 20.9312 23.7647 19.431 24.7961 17.9308C26.5308 17.7902 28.2654 17.7433 30.0469 17.7433C31.8752 17.7433 33.6099 17.7902 35.2976 17.9308C36.329 19.431 37.2666 20.9312 38.1105 22.4315C39.0012 23.9785 39.8451 25.5725 40.5952 27.1196C39.7982 28.6667 39.0012 30.2138 38.1105 31.8078ZM42.0017 30.2607C42.7049 31.9015 43.2675 33.4955 43.7832 35.0895C42.1892 35.4645 40.5014 35.7458 38.7199 35.9802C39.2825 35.0895 39.892 34.1518 40.4077 33.1673C40.9703 32.1828 41.486 31.1983 42.0017 30.2607ZM30 42.9656C28.8748 41.7466 27.7966 40.434 26.7652 39.0744C27.8434 39.1213 28.9217 39.1682 30 39.1682C31.0783 39.1682 32.1565 39.1213 33.2348 39.0744C32.2034 40.434 31.1251 41.7466 30 42.9656ZM21.28 35.9333C19.4985 35.6989 17.8108 35.4176 16.2168 35.0426C16.7325 33.4955 17.2951 31.8546 17.9983 30.2138C18.514 31.1514 19.0297 32.1359 19.5923 33.0736C20.1549 34.105 20.7174 34.9957 21.28 35.9333ZM17.9983 23.9785C17.2951 22.3377 16.7325 20.7437 16.2168 19.1498C17.8108 18.7747 19.4985 18.4934 21.28 18.259C20.7174 19.1498 20.108 20.0874 19.5923 21.0719C19.0297 22.0564 18.514 23.0409 17.9983 23.9785ZM30 11.2737C31.1251 12.4926 32.2034 13.8053 33.2348 15.1648C32.1565 15.1179 31.0783 15.0711 30 15.0711C28.9217 15.0711 27.8434 15.1179 26.7652 15.1648C27.7966 13.8053 28.8748 12.4926 30 11.2737ZM40.4077 21.1188L38.7199 18.3059C40.5014 18.5403 42.1892 18.8216 43.7832 19.1966C43.2675 20.7437 42.7049 22.3846 42.0017 24.0254C41.486 23.0409 40.9703 22.0564 40.4077 21.1188ZM14.8573 13.524C14.0603 8.60141 14.7166 5.13218 16.6388 4.00702C17.1076 3.72573 17.6702 3.58509 18.2796 3.58509C21.0925 3.58509 24.6086 5.88228 28.1247 9.35151C26.4839 11.133 24.843 13.1958 23.2491 15.4461C20.5299 15.6805 17.9514 16.1025 15.5136 16.6181C15.2323 15.5399 15.0448 14.5085 14.8573 13.524ZM3.27753 27.1196C3.27753 24.9162 5.94977 22.5721 10.6379 20.8375C11.5756 20.4624 12.6069 20.1343 13.6383 19.853C14.3884 22.1971 15.3261 24.6818 16.4512 27.1665C15.3261 29.6512 14.3416 32.089 13.6383 34.4331C7.16869 32.5579 3.27753 29.745 3.27753 27.1196ZM16.6388 50.2322C14.7166 49.107 14.0603 45.6378 14.8573 40.7152C14.9979 39.7307 15.2323 38.6993 15.5136 37.6211C17.9514 38.1836 20.5299 38.5587 23.2491 38.7931C24.843 41.0434 26.4839 43.0593 28.1247 44.8877C24.6555 48.3101 21.1394 50.6541 18.2796 50.6541C17.6702 50.6541 17.1076 50.5135 16.6388 50.2322ZM45.1427 40.7152C45.9397 45.6378 45.2834 49.107 43.3612 50.2322C42.8924 50.5135 42.3298 50.6541 41.7204 50.6541C38.9075 50.6541 35.3914 48.3569 31.8752 44.8877C33.5161 43.1062 35.157 41.0434 36.7509 38.7931C39.4701 38.5587 42.0485 38.1368 44.4864 37.6211C44.7677 38.6993 44.9552 39.7307 45.1427 40.7152ZM49.3621 33.4017C48.4244 33.7768 47.393 34.105 46.3616 34.3862C45.6115 32.0422 44.6739 29.5574 43.5487 27.0727C44.6739 24.588 45.6584 22.1502 46.3616 19.8061C52.8313 21.6814 56.7225 24.4942 56.7225 27.1196C56.7225 29.323 54.0033 31.6671 49.3621 33.4017Z" fill="#61DAFB"/>
</svg>
