<svg width="33" height="45" viewBox="0 0 33 45" fill="none" xmlns="http://www.w3.org/2000/svg">
<path d="M28.942 21.3043C25.1041 22.6533 21.0553 23.3027 16.988 23.2216C12.9207 23.3021 8.87189 22.6522 5.03411 21.3027C2.0384 20.1343 0.976078 18.8357 0.976078 18.0884V12.375C2.02343 13.0764 3.14706 13.6565 4.32536 14.1043C8.3859 15.5583 12.6756 16.2671 16.988 16.1968C21.3001 16.2658 25.5894 15.5581 29.6507 14.1075C30.8296 13.6597 31.9534 13.0784 33 12.375V18.0804C33 18.8421 31.9345 20.1343 28.942 21.3043Z" fill="#FFDA44"/>
<path d="M28.942 32.0801C27.5862 32.5971 26.1881 32.9956 24.7634 33.271C22.2015 33.7665 19.5974 34.0104 16.988 33.999C14.3788 34.0109 11.7746 33.7676 9.21268 33.2726C7.78802 32.9972 6.38992 32.5987 5.03411 32.0817C2.0384 30.9133 0.976078 29.6147 0.976078 28.8674V23.4192C1.84182 23.9401 2.75176 24.3838 3.69536 24.7451C7.96108 26.2554 12.4636 26.9865 16.988 26.9035C21.513 26.9839 26.0155 26.2501 30.2807 24.737C31.2239 24.3748 32.1338 23.9312 33 23.4111V28.8642C33 29.6131 31.9345 30.9068 28.942 32.0801Z" fill="#FFDA44"/>
<path d="M16.988 45.0001C8.14875 45.0001 0.976078 42.1972 0.976078 38.7418V34.1824C1.76366 34.6571 2.58872 35.0667 3.44304 35.407L3.69536 35.5083C7.96025 37.0231 12.4628 37.7585 16.988 37.6795C21.5134 37.7608 26.0164 37.0253 30.2807 35.5083C30.3675 35.4761 30.4511 35.4392 30.533 35.407C31.3874 35.0667 32.2124 34.6571 33 34.1824V38.7418C33 42.1972 25.8273 45.0001 16.988 45.0001Z" fill="#FFDA44"/>
<path d="M16.988 12.5164C8.14488 12.5164 0.976078 9.71453 0.976078 6.25821C0.976078 2.8019 8.14488 0 16.988 0C25.8312 0 33 2.8019 33 6.25821C33 9.71453 25.8312 12.5164 16.988 12.5164Z" fill="#FFDA44"/>
</svg>
