<svg width="66" height="40" viewBox="0 0 66 40" fill="none" xmlns="http://www.w3.org/2000/svg">
<path fill-rule="evenodd" clip-rule="evenodd" d="M33 0.363525C24.2716 0.363525 18.8193 4.69989 16.6363 13.3759C19.9091 9.03953 23.7283 7.41298 28.0909 8.49625C30.5814 9.1148 32.3618 10.9115 34.3287 12.8981C37.5393 16.1348 41.2538 19.8821 49.3636 19.8821C58.092 19.8821 63.5443 15.5457 65.7272 6.86971C62.4545 11.2061 58.6385 12.8326 54.2727 11.7493C51.7822 11.1308 50.0018 9.33407 48.0316 7.34753C44.8243 4.10753 41.1131 0.363525 33 0.363525ZM16.6363 19.8821C7.90798 19.8821 2.45561 24.2184 0.272705 32.8944C3.54543 28.5548 7.36471 26.9315 11.7273 28.0148C14.2178 28.6333 15.9982 30.4301 17.9683 32.4166C21.1756 35.6533 24.8902 39.4006 33.0033 39.4006C41.7316 39.4006 47.184 35.0643 49.3669 26.3883C46.0942 30.7246 42.2749 32.3512 37.9123 31.2679C35.4218 30.6493 33.6414 28.8526 31.6745 26.8661C28.4607 23.6293 24.7462 19.8821 16.6363 19.8821Z" fill="#38BDF8"/>
</svg>
